<svg width="24" height="24" viewBox="0 0 24 24" fill="none" xmlns="http://www.w3.org/2000/svg">
<path d="M0 3H24V21H0V3Z" fill="#012169"/>
<path d="M2.8125 3L11.9625 9.7875L21.075 3H24V5.325L15 12.0375L24 18.7125V21H21L12 14.2875L3.0375 21H0V18.75L8.9625 12.075L0 5.4V3H2.8125Z" fill="white"/>
<path d="M15.9 13.5375L24 19.5V21L13.8375 13.5375H15.9ZM9 14.2875L9.225 15.6L2.025 21H0L9 14.2875ZM24 3V3.1125L14.6625 10.1625L14.7375 8.5125L22.125 3H24ZM0 3L8.9625 9.6H6.7125L0 4.575V3Z" fill="#C8102E"/>
<path d="M9.0375 3V21H15.0375V3H9.0375ZM0 9V15H24V9H0Z" fill="white"/>
<path d="M0 10.2375V13.8375H24V10.2375H0ZM10.2375 3V21H13.8375V3H10.2375Z" fill="#C8102E"/>
</svg>
